<?xml version="1.0"?>
<svg xmlns="http://www.w3.org/2000/svg" xmlns:xlink="http://www.w3.org/1999/xlink" version="1.1" id="Capa_1" x="0px" y="0px" viewBox="0 0 512 512" style="enable-background:new 0 0 512 512;" xml:space="preserve" width="512px" height="512px" class=""><g><path style="fill:#FFB229" d="M407,512H105C47.103,512,0,464.897,0,407V105C0,47.103,47.103,0,105,0h302  c57.897,0,105,47.103,105,105v302C512,464.897,464.897,512,407,512z" data-original="#00C3FF" class="" data-old_color="#00C3FF"/><path style="fill:#EB7D16" d="M407,0H256v512h151c57.897,0,105-47.103,105-105V105C512,47.103,464.897,0,407,0z" data-original="#00AAF0" class="" data-old_color="#00AAF0"/><circle style="fill:#E3E9ED" cx="166" cy="211" r="80" data-original="#FFEA84" class="" data-old_color="#FFEA84"/><path style="fill:#FFFFFF" d="M356,241c-7.617,0-14.895,1.434-21.599,4.023C326.997,208.496,294.711,181,256,181  c-44.183,0-80,35.817-80,80c0,3.718,0.274,7.37,0.765,10.952C156.343,276.213,141,294.313,141,316c0,24.853,20.147,45,45,45  c17.904,0,146.029,0,170,0c33.137,0,60-26.863,60-60S389.137,241,356,241z" data-original="#FFFFFF" class="active-path" data-old_color="#FFFFFF"/><path style="fill:#F2F2F2" d="M356,241c-7.617,0-14.895,1.434-21.599,4.023C326.997,208.496,294.711,181,256,181v180  c40.947,0,86.643,0,100,0c33.137,0,60-26.863,60-60S389.137,241,356,241z" data-original="#F2F2F2" class=""/></g> </svg>
